# This file uses centimeters as units for non-parametric coordinates.

mtllib WheelObj.mtl
g default
v -0.250000 0.750000 -1.000000
v 0.250000 0.750000 -1.000000
v -0.250000 0.750000 1.000000
v 0.250000 0.750000 1.000000
v -0.250000 1.250000 1.000000
v 0.250000 1.250000 1.000000
v -0.250000 1.250000 -1.000000
v 0.250000 1.250000 -1.000000
v 0.500000 2.475528 -0.154509
v 0.500000 2.404509 -0.293893
v 0.500000 2.293893 -0.404509
v 0.500000 2.154509 -0.475529
v 0.500000 2.000000 -0.500000
v 0.500000 1.845491 -0.475528
v 0.500000 1.706107 -0.404509
v 0.500000 1.595491 -0.293893
v 0.500000 1.524472 -0.154509
v 0.500000 1.500000 0.000000
v 0.500000 1.524472 0.154509
v 0.500000 1.595491 0.293893
v 0.500000 1.706107 0.404509
v 0.500000 1.845491 0.475528
v 0.500000 2.000000 0.500000
v 0.500000 2.154509 0.475528
v 0.500000 2.293893 0.404509
v 0.500000 2.404509 0.293893
v 0.500000 2.475528 0.154509
v 0.500000 2.500000 0.000000
v -0.500000 2.475528 -0.154509
v -0.500000 2.404509 -0.293893
v -0.500000 2.293893 -0.404509
v -0.500000 2.154509 -0.475529
v -0.500000 2.000000 -0.500000
v -0.500000 1.845491 -0.475528
v -0.500000 1.706107 -0.404509
v -0.500000 1.595491 -0.293893
v -0.500000 1.524472 -0.154509
v -0.500000 1.500000 0.000000
v -0.500000 1.524472 0.154509
v -0.500000 1.595491 0.293893
v -0.500000 1.706107 0.404509
v -0.500000 1.845491 0.475528
v -0.500000 2.000000 0.500000
v -0.500000 2.154509 0.475528
v -0.500000 2.293893 0.404509
v -0.500000 2.404509 0.293893
v -0.500000 2.475528 0.154509
v -0.500000 2.500000 0.000000
v 0.500000 2.000000 0.000000
v -0.500000 2.000000 0.000000
v -0.250000 1.116117 1.237437
v 0.250000 1.116117 1.237437
v -0.250000 3.237437 -0.883883
v 0.250000 3.237437 -0.883883
v -0.250000 2.883883 -1.237437
v 0.250000 2.883883 -1.237437
v -0.250000 0.762563 0.883883
v 0.250000 0.762563 0.883883
v -0.250000 0.762563 -0.883883
v 0.250000 0.762563 -0.883883
v -0.250000 2.883883 1.237437
v 0.250000 2.883883 1.237437
v -0.250000 3.237437 0.883883
v 0.250000 3.237437 0.883883
v -0.250000 1.116117 -1.237437
v 0.250000 1.116117 -1.237437
v -0.250000 2.750000 -1.000000
v 0.250000 2.750000 -1.000000
v -0.250000 2.750000 1.000000
v 0.250000 2.750000 1.000000
v -0.250000 3.250000 1.000000
v 0.250000 3.250000 1.000000
v -0.250000 3.250000 -1.000000
v 0.250000 3.250000 -1.000000
v -0.250000 1.000000 -0.750000
v 0.250000 1.000000 -0.750000
v -0.250000 3.000000 -0.750000
v 0.250000 3.000000 -0.750000
v -0.250000 3.000000 -1.250000
v 0.250000 3.000000 -1.250000
v -0.250000 1.000000 -1.250000
v 0.250000 1.000000 -1.250000
v -0.250000 1.000000 1.250000
v 0.250000 1.000000 1.250000
v -0.250000 3.000000 1.250000
v 0.250000 3.000000 1.250000
v -0.250000 3.000000 0.750000
v 0.250000 3.000000 0.750000
v -0.250000 1.000000 0.750000
v 0.250000 1.000000 0.750000
vt 0.041259 0.311590
vt 0.103002 0.311590
vt 0.103002 0.558562
vt 0.041259 0.558562
vt 0.063735 0.809525
vt 0.001992 0.809525
vt 0.001992 0.562553
vt 0.063735 0.562553
vt 0.709082 0.983850
vt 0.691871 0.992620
vt 0.672791 0.933899
vt 0.672791 0.995642
vt 0.722742 0.970191
vt 0.653711 0.992620
vt 0.731512 0.952979
vt 0.636499 0.983850
vt 0.734534 0.933899
vt 0.622840 0.970191
vt 0.731512 0.914819
vt 0.614070 0.952979
vt 0.722742 0.897608
vt 0.611048 0.933899
vt 0.709082 0.883948
vt 0.614070 0.914819
vt 0.691871 0.875178
vt 0.622840 0.897608
vt 0.672791 0.872156
vt 0.636499 0.883948
vt 0.653711 0.875178
vt 0.524090 0.992620
vt 0.506878 0.983850
vt 0.543170 0.933899
vt 0.493219 0.970191
vt 0.543170 0.995642
vt 0.484449 0.952979
vt 0.562249 0.992620
vt 0.481427 0.933899
vt 0.579461 0.983850
vt 0.484449 0.914819
vt 0.593121 0.970191
vt 0.493219 0.897608
vt 0.601891 0.952979
vt 0.506878 0.883948
vt 0.604913 0.933899
vt 0.524090 0.875178
vt 0.601891 0.914819
vt 0.543170 0.872156
vt 0.593121 0.897608
vt 0.562249 0.875178
vt 0.579461 0.883948
vt 0.070400 0.045646
vt 0.114059 0.001987
vt 0.376012 0.263940
vt 0.332353 0.307599
vt 0.644185 0.001987
vt 0.687844 0.045646
vt 0.425891 0.307599
vt 0.382233 0.263940
vt 0.954349 0.311590
vt 0.998008 0.355249
vt 0.736055 0.617202
vt 0.692397 0.573543
vt 0.380650 0.355249
vt 0.424309 0.311590
vt 0.686261 0.573543
vt 0.642602 0.617202
vt 0.206827 0.577534
vt 0.268570 0.577534
vt 0.268570 0.824506
vt 0.206827 0.824506
vt 0.336783 0.824506
vt 0.275040 0.824506
vt 0.275040 0.577534
vt 0.336783 0.577534
vt 0.479680 0.621193
vt 0.541423 0.621193
vt 0.541423 0.868165
vt 0.479680 0.868165
vt 0.547894 0.621193
vt 0.609636 0.621193
vt 0.609636 0.868165
vt 0.547894 0.868165
vt 0.752534 0.621193
vt 0.814277 0.621193
vt 0.814277 0.868165
vt 0.752534 0.868165
vt 0.820747 0.621193
vt 0.882490 0.621193
vt 0.882490 0.868165
vt 0.820747 0.868165
vt 0.177015 0.311590
vt 0.238758 0.311590
vt 0.238758 0.558562
vt 0.177015 0.558562
vt 0.109137 0.311590
vt 0.170880 0.311590
vt 0.170880 0.558562
vt 0.109137 0.558562
vt 0.957991 0.621193
vt 0.975203 0.621193
vt 0.975203 0.744679
vt 0.957991 0.744679
vt 0.988862 0.621193
vt 0.988862 0.744679
vt 0.938911 0.621193
vt 0.938911 0.744679
vt 0.919832 0.621193
vt 0.919832 0.744679
vt 0.902620 0.621193
vt 0.902620 0.744679
vt 0.888960 0.621193
vt 0.888960 0.744679
vt 0.833047 0.872156
vt 0.850259 0.872156
vt 0.850259 0.995642
vt 0.833047 0.995642
vt 0.869339 0.872156
vt 0.869339 0.995642
vt 0.819388 0.872156
vt 0.819388 0.995642
vt 0.888418 0.872156
vt 0.888418 0.995642
vt 0.905630 0.872156
vt 0.905630 0.995642
vt 0.919290 0.872156
vt 0.919290 0.995642
vt 0.070400 0.562553
vt 0.132143 0.562553
vt 0.132143 0.809525
vt 0.070400 0.809525
vt 0.138614 0.562553
vt 0.200356 0.562553
vt 0.200356 0.809525
vt 0.138614 0.809525
vt 0.142036 0.828497
vt 0.203779 0.828497
vt 0.203779 0.890240
vt 0.142036 0.890240
vt 0.074158 0.813516
vt 0.135901 0.813516
vt 0.135901 0.875259
vt 0.074158 0.875259
vt 0.006279 0.813516
vt 0.068022 0.813516
vt 0.068022 0.875259
vt 0.006279 0.875259
vt 0.001992 0.940993
vt 0.001992 0.879250
vt 0.063735 0.879250
vt 0.063735 0.940993
vt 0.413549 0.872156
vt 0.475292 0.872156
vt 0.475292 0.933899
vt 0.413549 0.933899
vt 0.345671 0.872156
vt 0.407413 0.872156
vt 0.407413 0.933899
vt 0.345671 0.933899
vt 0.925425 0.748670
vt 0.942637 0.748670
vt 0.942637 0.872156
vt 0.925425 0.872156
vt 0.961717 0.748670
vt 0.961717 0.872156
vt 0.980796 0.748670
vt 0.980796 0.872156
vt 0.998008 0.748670
vt 0.998008 0.872156
vt 0.740669 0.872156
vt 0.757881 0.872156
vt 0.757881 0.995642
vt 0.740669 0.995642
vt 0.776961 0.872156
vt 0.776961 0.995642
vt 0.796040 0.872156
vt 0.796040 0.995642
vt 0.813252 0.872156
vt 0.813252 0.995642
vt 0.277792 0.872156
vt 0.339535 0.872156
vt 0.339535 0.933899
vt 0.277792 0.933899
vt 0.209914 0.828497
vt 0.271657 0.828497
vt 0.271657 0.890240
vt 0.209914 0.890240
vt 0.343254 0.621193
vt 0.404996 0.621193
vt 0.404996 0.868165
vt 0.343254 0.868165
vt 0.411467 0.621193
vt 0.473210 0.621193
vt 0.473210 0.868165
vt 0.411467 0.868165
vt 0.616107 0.621193
vt 0.677850 0.621193
vt 0.677850 0.868165
vt 0.616107 0.868165
vt 0.684320 0.621193
vt 0.746063 0.621193
vt 0.746063 0.868165
vt 0.684320 0.868165
vt 0.001992 0.001987
vt 0.063735 0.001987
vt 0.063735 0.263940
vt 0.001992 0.263940
vt 0.001992 0.045646
vt 0.063735 0.045646
vt 0.063735 0.307599
vt 0.001992 0.307599
vt 0.312771 0.311590
vt 0.374514 0.311590
vt 0.374514 0.573543
vt 0.312771 0.573543
vt 0.694065 0.045646
vt 0.755808 0.045646
vt 0.755808 0.307599
vt 0.694065 0.307599
vt 0.694065 0.001987
vt 0.755808 0.001987
vt 0.755808 0.263940
vt 0.694065 0.263940
vt 0.244893 0.311590
vt 0.306636 0.311590
vt 0.306636 0.573543
vt 0.244893 0.573543
vn 0.000000 -1.000000 0.000000
vn 0.000000 -1.000000 0.000000
vn 0.000000 -1.000000 0.000000
vn 0.000000 -1.000000 0.000000
vn 0.000000 0.000000 1.000000
vn 0.000000 0.000000 1.000000
vn 0.000000 0.000000 1.000000
vn 0.000000 0.000000 1.000000
vn 0.000000 1.000000 0.000000
vn 0.000000 1.000000 0.000000
vn 0.000000 1.000000 0.000000
vn 0.000000 1.000000 0.000000
vn 0.000000 0.000000 -1.000000
vn 0.000000 0.000000 -1.000000
vn 0.000000 0.000000 -1.000000
vn 0.000000 0.000000 -1.000000
vn 1.000000 0.000000 0.000000
vn 1.000000 0.000000 0.000000
vn 1.000000 0.000000 0.000000
vn 1.000000 0.000000 0.000000
vn -1.000000 0.000000 0.000000
vn -1.000000 0.000000 0.000000
vn -1.000000 0.000000 0.000000
vn -1.000000 0.000000 0.000000
vn 0.000000 0.951057 -0.309016
vn 0.000000 0.809017 -0.587785
vn 0.000000 0.809017 -0.587785
vn 0.000000 0.951057 -0.309016
vn 0.000000 0.587785 -0.809017
vn 0.000000 0.587785 -0.809017
vn 0.000000 0.309017 -0.951057
vn 0.000000 0.309017 -0.951057
vn 0.000000 -0.000000 -1.000000
vn 0.000000 -0.000000 -1.000000
vn 0.000000 -0.309017 -0.951057
vn 0.000000 -0.309017 -0.951057
vn 0.000000 -0.587785 -0.809017
vn 0.000000 -0.587785 -0.809017
vn 0.000000 -0.809017 -0.587785
vn 0.000000 -0.809017 -0.587785
vn 0.000000 -0.951057 -0.309017
vn 0.000000 -0.951057 -0.309017
vn 0.000000 -1.000000 0.000000
vn 0.000000 -1.000000 0.000000
vn 0.000000 -0.951057 0.309017
vn 0.000000 -0.951057 0.309017
vn 0.000000 -0.809017 0.587785
vn 0.000000 -0.809017 0.587785
vn 0.000000 -0.587785 0.809017
vn 0.000000 -0.587785 0.809017
vn 0.000000 -0.309017 0.951057
vn 0.000000 -0.309017 0.951057
vn 0.000000 0.000000 1.000000
vn 0.000000 0.000000 1.000000
vn 0.000000 0.309017 0.951057
vn 0.000000 0.309017 0.951057
vn 0.000000 0.587785 0.809017
vn 0.000000 0.587785 0.809017
vn 0.000000 0.809017 0.587785
vn 0.000000 0.809017 0.587785
vn 0.000000 0.951057 0.309017
vn 0.000000 0.951057 0.309017
vn 0.000000 1.000000 0.000001
vn 0.000000 1.000000 0.000001
vn 1.000000 0.000000 0.000000
vn 1.000000 0.000000 0.000000
vn 1.000000 0.000000 0.000000
vn 1.000000 0.000000 0.000000
vn 1.000000 0.000003 0.000000
vn 1.000000 0.000000 0.000000
vn 1.000000 -0.000003 0.000000
vn 1.000000 0.000002 0.000000
vn 1.000000 0.000002 0.000000
vn 1.000000 0.000000 0.000000
vn 1.000000 0.000000 0.000000
vn 1.000000 0.000000 0.000000
vn 1.000000 0.000003 0.000000
vn 1.000000 0.000003 0.000000
vn 1.000000 0.000000 0.000000
vn 1.000000 0.000000 0.000000
vn 1.000000 -0.000003 0.000000
vn 1.000000 -0.000002 0.000000
vn 1.000000 0.000001 0.000000
vn 1.000000 -0.000001 0.000000
vn 1.000000 0.000000 0.000000
vn -1.000000 0.000000 0.000000
vn -1.000000 0.000000 0.000000
vn -1.000000 0.000000 0.000000
vn -1.000000 0.000000 0.000000
vn -1.000000 0.000000 0.000000
vn -1.000000 -0.000003 0.000000
vn -1.000000 -0.000000 0.000000
vn -1.000000 0.000003 0.000000
vn -1.000000 0.000000 0.000000
vn -1.000000 0.000000 0.000000
vn -1.000000 0.000000 0.000000
vn -1.000000 -0.000001 0.000000
vn -1.000000 0.000001 0.000000
vn -1.000000 0.000003 0.000000
vn -1.000000 0.000002 0.000000
vn -1.000000 0.000000 0.000000
vn -1.000000 0.000000 0.000000
vn -1.000000 0.000000 0.000000
vn -1.000000 0.000000 0.000000
vn -1.000000 0.000000 0.000000
vn -1.000000 0.000000 0.000000
vn 0.000000 0.707107 0.707107
vn 0.000000 0.707107 0.707107
vn 0.000000 0.707107 0.707107
vn 0.000000 0.707107 0.707107
vn 0.000000 0.707107 -0.707107
vn 0.000000 0.707107 -0.707107
vn 0.000000 0.707107 -0.707107
vn 0.000000 0.707107 -0.707107
vn 0.000000 -0.707107 -0.707107
vn 0.000000 -0.707107 -0.707107
vn 0.000000 -0.707107 -0.707107
vn 0.000000 -0.707107 -0.707107
vn 0.000000 -0.707107 0.707107
vn 0.000000 -0.707107 0.707107
vn 0.000000 -0.707107 0.707107
vn 0.000000 -0.707107 0.707107
vn 1.000000 0.000000 0.000000
vn 1.000000 0.000000 0.000000
vn 1.000000 0.000000 0.000000
vn 1.000000 0.000000 0.000000
vn -1.000000 0.000000 0.000000
vn -1.000000 0.000000 0.000000
vn -1.000000 0.000000 0.000000
vn -1.000000 0.000000 0.000000
vn 0.000000 -0.707107 0.707107
vn 0.000000 -0.707107 0.707107
vn 0.000000 -0.707107 0.707107
vn 0.000000 -0.707107 0.707107
vn 0.000000 0.707107 0.707107
vn 0.000000 0.707107 0.707107
vn 0.000000 0.707107 0.707107
vn 0.000000 0.707107 0.707107
vn 0.000000 0.707107 -0.707107
vn 0.000000 0.707107 -0.707107
vn 0.000000 0.707107 -0.707107
vn 0.000000 0.707107 -0.707107
vn 0.000000 -0.707107 -0.707107
vn 0.000000 -0.707107 -0.707107
vn 0.000000 -0.707107 -0.707107
vn 0.000000 -0.707107 -0.707107
vn 1.000000 0.000000 0.000000
vn 1.000000 0.000000 0.000000
vn 1.000000 0.000000 0.000000
vn 1.000000 0.000000 0.000000
vn -1.000000 0.000000 0.000000
vn -1.000000 0.000000 0.000000
vn -1.000000 0.000000 0.000000
vn -1.000000 0.000000 0.000000
vn 0.000000 -1.000000 0.000000
vn 0.000000 -1.000000 0.000000
vn 0.000000 -1.000000 0.000000
vn 0.000000 -1.000000 0.000000
vn 0.000000 0.000000 1.000000
vn 0.000000 0.000000 1.000000
vn 0.000000 0.000000 1.000000
vn 0.000000 0.000000 1.000000
vn 0.000000 1.000000 0.000000
vn 0.000000 1.000000 0.000000
vn 0.000000 1.000000 0.000000
vn 0.000000 1.000000 0.000000
vn 0.000000 0.000000 -1.000000
vn 0.000000 0.000000 -1.000000
vn 0.000000 0.000000 -1.000000
vn 0.000000 0.000000 -1.000000
vn 1.000000 0.000000 0.000000
vn 1.000000 0.000000 0.000000
vn 1.000000 0.000000 0.000000
vn 1.000000 0.000000 0.000000
vn -1.000000 0.000000 0.000000
vn -1.000000 0.000000 0.000000
vn -1.000000 0.000000 0.000000
vn -1.000000 0.000000 0.000000
vn 0.000000 0.000000 1.000000
vn 0.000000 0.000000 1.000000
vn 0.000000 0.000000 1.000000
vn 0.000000 0.000000 1.000000
vn 0.000000 1.000000 0.000000
vn 0.000000 1.000000 0.000000
vn 0.000000 1.000000 0.000000
vn 0.000000 1.000000 0.000000
vn 0.000000 0.000000 -1.000000
vn 0.000000 0.000000 -1.000000
vn 0.000000 0.000000 -1.000000
vn 0.000000 0.000000 -1.000000
vn 0.000000 -1.000000 0.000000
vn 0.000000 -1.000000 0.000000
vn 0.000000 -1.000000 0.000000
vn 0.000000 -1.000000 0.000000
vn 1.000000 0.000000 0.000000
vn 1.000000 0.000000 0.000000
vn 1.000000 0.000000 0.000000
vn 1.000000 0.000000 0.000000
vn -1.000000 0.000000 0.000000
vn -1.000000 0.000000 0.000000
vn -1.000000 0.000000 0.000000
vn -1.000000 0.000000 0.000000
vn 0.000000 0.000000 1.000000
vn 0.000000 0.000000 1.000000
vn 0.000000 0.000000 1.000000
vn 0.000000 0.000000 1.000000
vn 0.000000 1.000000 0.000000
vn 0.000000 1.000000 0.000000
vn 0.000000 1.000000 0.000000
vn 0.000000 1.000000 0.000000
vn 0.000000 0.000000 -1.000000
vn 0.000000 0.000000 -1.000000
vn 0.000000 0.000000 -1.000000
vn 0.000000 0.000000 -1.000000
vn 0.000000 -1.000000 0.000000
vn 0.000000 -1.000000 0.000000
vn 0.000000 -1.000000 0.000000
vn 0.000000 -1.000000 0.000000
vn 1.000000 0.000000 0.000000
vn 1.000000 0.000000 0.000000
vn 1.000000 0.000000 0.000000
vn 1.000000 0.000000 0.000000
vn -1.000000 0.000000 0.000000
vn -1.000000 0.000000 0.000000
vn -1.000000 0.000000 0.000000
vn -1.000000 0.000000 0.000000
s off
g wheel
usemtl initialShadingGroup
f 1/91/1 2/92/2 4/93/3 3/94/4
f 3/151/5 4/152/6 6/153/7 5/154/8
f 5/95/9 6/96/10 8/97/11 7/98/12
f 7/155/13 8/156/14 2/157/15 1/158/16
f 2/1/17 8/2/18 6/3/19 4/4/20
f 7/5/21 1/6/22 3/7/23 5/8/24
s 1
f 9/99/25 10/100/26 30/101/27 29/102/28
f 10/100/26 11/103/29 31/104/30 30/101/27
f 11/159/29 12/160/31 32/161/32 31/162/30
f 12/160/31 13/163/33 33/164/34 32/161/32
f 13/163/33 14/165/35 34/166/36 33/164/34
f 14/165/35 15/167/37 35/168/38 34/166/36
f 15/119/37 16/113/39 36/116/40 35/120/38
f 16/113/39 17/114/41 37/115/42 36/116/40
f 17/114/41 18/117/43 38/118/44 37/115/42
f 18/117/43 19/121/45 39/122/46 38/118/44
f 19/121/45 20/123/47 40/124/48 39/122/46
f 20/123/47 21/125/49 41/126/50 40/124/48
f 21/169/49 22/170/51 42/171/52 41/172/50
f 22/170/51 23/173/53 43/174/54 42/171/52
f 23/173/53 24/175/55 44/176/56 43/174/54
f 24/175/55 25/177/57 45/178/58 44/176/56
f 25/111/57 26/109/59 46/110/60 45/112/58
f 26/109/59 27/107/61 47/108/62 46/110/60
f 27/107/61 28/105/63 48/106/64 47/108/62
f 28/105/63 9/99/25 29/102/28 48/106/64
s 2
f 10/9/65 9/10/66 49/11/67
f 11/13/68 10/9/65 49/11/67
f 12/15/69 11/13/68 49/11/67
f 13/17/70 12/15/69 49/11/67
f 14/19/71 13/17/70 49/11/67
f 15/21/72 14/19/71 49/11/67
f 16/23/73 15/21/72 49/11/67
f 17/25/74 16/23/73 49/11/67
f 18/27/75 17/25/74 49/11/67
f 19/29/76 18/27/75 49/11/67
f 20/28/77 19/29/76 49/11/67
f 21/26/78 20/28/77 49/11/67
f 22/24/79 21/26/78 49/11/67
f 23/22/80 22/24/79 49/11/67
f 24/20/81 23/22/80 49/11/67
f 25/18/82 24/20/81 49/11/67
f 26/16/83 25/18/82 49/11/67
f 27/14/84 26/16/83 49/11/67
f 28/12/85 27/14/84 49/11/67
f 9/10/66 28/12/85 49/11/67
s 3
f 29/30/86 30/31/87 50/32/88
f 30/31/87 31/33/89 50/32/88
f 31/33/89 32/35/90 50/32/88
f 32/35/90 33/37/91 50/32/88
f 33/37/91 34/39/92 50/32/88
f 34/39/92 35/41/93 50/32/88
f 35/41/93 36/43/94 50/32/88
f 36/43/94 37/45/95 50/32/88
f 37/45/95 38/47/96 50/32/88
f 38/47/96 39/49/97 50/32/88
f 39/49/97 40/50/98 50/32/88
f 40/50/98 41/48/99 50/32/88
f 41/48/99 42/46/100 50/32/88
f 42/46/100 43/44/101 50/32/88
f 43/44/101 44/42/102 50/32/88
f 44/42/102 45/40/103 50/32/88
f 45/40/103 46/38/104 50/32/88
f 46/38/104 47/36/105 50/32/88
f 47/36/105 48/34/106 50/32/88
f 48/34/106 29/30/86 50/32/88
s off
f 51/203/107 52/204/108 54/205/109 53/206/110
f 53/206/111 54/205/112 56/209/113 55/210/114
f 55/211/115 56/212/116 58/213/117 57/214/118
f 57/207/119 58/208/120 52/204/121 51/203/122
f 52/51/123 58/52/124 56/53/125 54/54/126
f 57/55/127 51/56/128 53/57/129 55/58/130
f 59/215/131 60/216/132 62/217/133 61/218/134
f 61/218/135 62/217/136 64/221/137 63/222/138
f 63/223/139 64/224/140 66/225/141 65/226/142
f 65/219/143 66/220/144 60/216/145 59/215/146
f 60/59/147 66/60/148 64/61/149 62/62/150
f 65/63/151 59/64/152 61/65/153 63/66/154
f 67/127/155 68/128/156 70/129/157 69/130/158
f 69/179/159 70/180/160 72/181/161 71/182/162
f 71/131/163 72/132/164 74/133/165 73/134/166
f 73/183/167 74/184/168 68/185/169 67/186/170
f 68/67/171 74/68/172 72/69/173 70/70/174
f 73/71/175 67/72/176 69/73/177 71/74/178
f 75/187/179 76/188/180 78/189/181 77/190/182
f 77/135/183 78/136/184 80/137/185 79/138/186
f 79/191/187 80/192/188 82/193/189 81/194/190
f 81/139/191 82/140/192 76/141/193 75/142/194
f 76/75/195 82/76/196 80/77/197 78/78/198
f 81/79/199 75/80/200 77/81/201 79/82/202
f 83/195/203 84/196/204 86/197/205 85/198/206
f 85/143/207 86/144/208 88/145/209 87/146/210
f 87/199/211 88/200/212 90/201/213 89/202/214
f 89/147/215 90/148/216 84/149/217 83/150/218
f 84/83/219 90/84/220 88/85/221 86/86/222
f 89/87/223 83/88/224 85/89/225 87/90/226
